<svg width="56" height="92" viewBox="0 0 56 92" fill="none" xmlns="http://www.w3.org/2000/svg">
  <line x1="26" y1="13" x2="4"  y2="79" stroke="#1a6b4a" stroke-width="4.5" stroke-linecap="round"/>
  <line x1="29" y1="13" x2="7"  y2="79" stroke="#f0efea" stroke-width="1.4" stroke-linecap="round" opacity="0.65"/>
  <line x1="28" y1="13" x2="50" y2="79" stroke="#1a6b4a" stroke-width="4.5" stroke-linecap="round"/>
  <line x1="25" y1="13" x2="47" y2="79" stroke="#f0efea" stroke-width="1.4" stroke-linecap="round" opacity="0.65"/>
  <line x1="12" y1="51" x2="42" y2="51" stroke="#2d9c6e" stroke-width="3"   stroke-linecap="round"/>
  <line x1="27" y1="19" x2="27" y2="37" stroke="#2d9c6e" stroke-width="1.8" stroke-dasharray="2.5 2.8" stroke-linecap="round" opacity="0.75"/>
  <line x1="25" y1="41" x2="14" y2="50" stroke="#2d9c6e" stroke-width="1.6" stroke-dasharray="2 2.8"   stroke-linecap="round" opacity="0.6"/>
  <line x1="29" y1="41" x2="40" y2="50" stroke="#2d9c6e" stroke-width="1.6" stroke-dasharray="2 2.8"   stroke-linecap="round" opacity="0.6"/>
  <circle cx="27" cy="12" r="5.5" fill="#1a6b4a"/><circle cx="27" cy="12" r="2.2" fill="#f0efea"/>
  <circle cx="12" cy="51" r="4.2" fill="#f0efea" stroke="#2d9c6e" stroke-width="1.8"/><circle cx="12" cy="51" r="1.6" fill="#2d9c6e"/>
  <circle cx="42" cy="51" r="4.8" fill="#1a6b4a"/><circle cx="42" cy="51" r="1.9" fill="#f0efea"/>
  <circle cx="3"  cy="79" r="4"   fill="#f0efea" stroke="#1a6b4a" stroke-width="1.6"/>
  <circle cx="51" cy="79" r="4"   fill="#f0efea" stroke="#1a6b4a" stroke-width="1.6"/>
  <circle cx="27" cy="41" r="4.5" fill="#2d9c6e"/><circle cx="27" cy="41" r="1.8" fill="#f0efea"/>
</svg>